<svg xmlns="http://www.w3.org/2000/svg" xmlns:xlink="http://www.w3.org/1999/xlink" version="1.1" viewBox="18.02 13.15 13.95 23.71">
<g id="surface1">
<path style=" stroke:none;fill-rule:nonzero;fill:rgb(90.196079%,90.196079%,92.941177%);fill-opacity:1;" d="M 18.703125 22.503906 C 18.703125 22.503906 16.332031 15.433594 20.449219 13.351562 C 20.449219 13.351562 22.773438 12.382812 23.933594 14.660156 C 23.933594 14.660156 25.144531 16.9375 23.257812 21.972656 Z M 18.703125 22.503906 "/>
<path style=" stroke:none;fill-rule:nonzero;fill:rgb(90.196079%,90.196079%,92.941177%);fill-opacity:1;" d="M 19.140625 24.246094 L 23.304688 23.8125 C 23.304688 23.8125 25 27.832031 22.433594 28.847656 C 22.433594 28.847656 19.089844 29.476562 19.140625 24.246094 Z M 19.140625 24.246094 "/>
<path style=" stroke:none;fill-rule:nonzero;fill:rgb(90.196079%,90.196079%,92.941177%);fill-opacity:1;" d="M 30.367188 31.175781 C 30.367188 31.175781 34.003906 24.664062 30.34375 21.859375 C 30.34375 21.859375 28.238281 20.480469 26.675781 22.5 C 26.675781 22.5 25.066406 24.515625 25.992188 29.8125 Z M 30.367188 31.175781 "/>
<path style=" stroke:none;fill-rule:nonzero;fill:rgb(90.196079%,90.196079%,92.941177%);fill-opacity:1;" d="M 29.617188 32.808594 L 25.601562 31.609375 C 25.601562 31.609375 23.195312 35.25 25.527344 36.722656 C 25.53125 36.722656 28.699219 37.957031 29.617188 32.808594 Z M 29.617188 32.808594 "/>
</g>
</svg>